<mxfile host="app.diagrams.net" agent="Mozilla/5.0 (Windows NT 10.0; Win64; x64) AppleWebKit/537.36 (KHTML, like Gecko) Chrome/140.0.0.0 Safari/537.36" version="28.2.3">
  <diagram name="Page-1" id="OFY4NvPdPwXvo75uXq5w">
    <mxGraphModel dx="786" dy="451" grid="1" gridSize="10" guides="1" tooltips="1" connect="1" arrows="1" fold="1" page="1" pageScale="1" pageWidth="850" pageHeight="1100" math="0" shadow="0">
      <root>
        <mxCell id="0" />
        <mxCell id="1" parent="0" />
        <mxCell id="YMsll4qhUL9zw9n4fE6r-11" style="edgeStyle=orthogonalEdgeStyle;rounded=0;orthogonalLoop=1;jettySize=auto;html=1;exitX=0.5;exitY=1;exitDx=0;exitDy=0;entryX=0.5;entryY=0;entryDx=0;entryDy=0;" edge="1" parent="1" source="YMsll4qhUL9zw9n4fE6r-1" target="YMsll4qhUL9zw9n4fE6r-2">
          <mxGeometry relative="1" as="geometry" />
        </mxCell>
        <mxCell id="YMsll4qhUL9zw9n4fE6r-1" value="plan" style="rounded=0;whiteSpace=wrap;html=1;" vertex="1" parent="1">
          <mxGeometry x="330" y="10" width="120" height="60" as="geometry" />
        </mxCell>
        <mxCell id="YMsll4qhUL9zw9n4fE6r-12" style="edgeStyle=orthogonalEdgeStyle;rounded=0;orthogonalLoop=1;jettySize=auto;html=1;exitX=0.5;exitY=1;exitDx=0;exitDy=0;entryX=0.5;entryY=0;entryDx=0;entryDy=0;" edge="1" parent="1" source="YMsll4qhUL9zw9n4fE6r-2" target="YMsll4qhUL9zw9n4fE6r-3">
          <mxGeometry relative="1" as="geometry" />
        </mxCell>
        <mxCell id="YMsll4qhUL9zw9n4fE6r-2" value="develop" style="rhombus;whiteSpace=wrap;html=1;" vertex="1" parent="1">
          <mxGeometry x="342.5" y="90" width="95" height="80" as="geometry" />
        </mxCell>
        <mxCell id="YMsll4qhUL9zw9n4fE6r-13" style="edgeStyle=orthogonalEdgeStyle;rounded=0;orthogonalLoop=1;jettySize=auto;html=1;exitX=0.5;exitY=1;exitDx=0;exitDy=0;entryX=0.5;entryY=0;entryDx=0;entryDy=0;" edge="1" parent="1" source="YMsll4qhUL9zw9n4fE6r-3" target="YMsll4qhUL9zw9n4fE6r-10">
          <mxGeometry relative="1" as="geometry" />
        </mxCell>
        <mxCell id="YMsll4qhUL9zw9n4fE6r-3" value="build" style="shape=parallelogram;perimeter=parallelogramPerimeter;whiteSpace=wrap;html=1;fixedSize=1;" vertex="1" parent="1">
          <mxGeometry x="330" y="190" width="120" height="50" as="geometry" />
        </mxCell>
        <mxCell id="YMsll4qhUL9zw9n4fE6r-15" style="edgeStyle=orthogonalEdgeStyle;rounded=0;orthogonalLoop=1;jettySize=auto;html=1;exitX=0.5;exitY=1;exitDx=0;exitDy=0;entryX=0.5;entryY=0;entryDx=0;entryDy=0;" edge="1" parent="1" source="YMsll4qhUL9zw9n4fE6r-6" target="YMsll4qhUL9zw9n4fE6r-7">
          <mxGeometry relative="1" as="geometry" />
        </mxCell>
        <mxCell id="YMsll4qhUL9zw9n4fE6r-6" value="release" style="rounded=1;whiteSpace=wrap;html=1;" vertex="1" parent="1">
          <mxGeometry x="330" y="360" width="120" height="60" as="geometry" />
        </mxCell>
        <mxCell id="YMsll4qhUL9zw9n4fE6r-16" style="edgeStyle=orthogonalEdgeStyle;rounded=0;orthogonalLoop=1;jettySize=auto;html=1;exitX=0.5;exitY=1;exitDx=0;exitDy=0;entryX=0.5;entryY=0;entryDx=0;entryDy=0;" edge="1" parent="1" source="YMsll4qhUL9zw9n4fE6r-7" target="YMsll4qhUL9zw9n4fE6r-8">
          <mxGeometry relative="1" as="geometry" />
        </mxCell>
        <mxCell id="YMsll4qhUL9zw9n4fE6r-7" value="deploy" style="shape=trapezoid;perimeter=trapezoidPerimeter;whiteSpace=wrap;html=1;fixedSize=1;" vertex="1" parent="1">
          <mxGeometry x="330" y="440" width="120" height="60" as="geometry" />
        </mxCell>
        <mxCell id="YMsll4qhUL9zw9n4fE6r-17" style="edgeStyle=orthogonalEdgeStyle;rounded=0;orthogonalLoop=1;jettySize=auto;html=1;exitX=0.5;exitY=1;exitDx=0;exitDy=0;entryX=0.5;entryY=0;entryDx=0;entryDy=0;" edge="1" parent="1" source="YMsll4qhUL9zw9n4fE6r-8" target="YMsll4qhUL9zw9n4fE6r-9">
          <mxGeometry relative="1" as="geometry" />
        </mxCell>
        <mxCell id="YMsll4qhUL9zw9n4fE6r-8" value="operator- person/&lt;div&gt;actor&lt;/div&gt;" style="shape=hexagon;perimeter=hexagonPerimeter2;whiteSpace=wrap;html=1;fixedSize=1;" vertex="1" parent="1">
          <mxGeometry x="330" y="520" width="120" height="60" as="geometry" />
        </mxCell>
        <mxCell id="YMsll4qhUL9zw9n4fE6r-9" value="monitor" style="shape=document;whiteSpace=wrap;html=1;boundedLbl=1;size=0.25;" vertex="1" parent="1">
          <mxGeometry x="330" y="600" width="120" height="70" as="geometry" />
        </mxCell>
        <mxCell id="YMsll4qhUL9zw9n4fE6r-14" style="edgeStyle=orthogonalEdgeStyle;rounded=0;orthogonalLoop=1;jettySize=auto;html=1;exitX=0.5;exitY=1;exitDx=0;exitDy=0;entryX=0.5;entryY=0;entryDx=0;entryDy=0;" edge="1" parent="1" source="YMsll4qhUL9zw9n4fE6r-10" target="YMsll4qhUL9zw9n4fE6r-6">
          <mxGeometry relative="1" as="geometry" />
        </mxCell>
        <mxCell id="YMsll4qhUL9zw9n4fE6r-10" value="test" style="ellipse;whiteSpace=wrap;html=1;" vertex="1" parent="1">
          <mxGeometry x="330" y="260" width="120" height="70" as="geometry" />
        </mxCell>
      </root>
    </mxGraphModel>
  </diagram>
</mxfile>
